<svg width="247" height="51" viewBox="0 0 247 51" fill="none" xmlns="http://www.w3.org/2000/svg">
<path d="M6.60865 25.3716H11.7121C13.5779 25.3716 15.2634 25.0725 16.7686 24.4742C18.2737 23.876 19.5594 23.0402 20.6256 21.9668C21.676 20.9111 22.4835 19.653 23.0479 18.1925C23.6281 16.7321 23.9181 15.1396 23.9181 13.4152C23.9181 11.5677 23.6281 9.88728 23.0479 8.37403C22.4835 6.86079 21.676 5.55869 20.6256 4.46775C19.5594 3.3944 18.2737 2.5586 16.7686 1.96034C15.2634 1.34449 13.5779 1.03656 11.7121 1.03656H0V39.4659H6.60865V25.3716ZM6.60865 19.3538V7.05434H11.7121C12.6529 7.05434 13.4682 7.2215 14.158 7.55582C14.8479 7.89015 15.428 8.34764 15.8984 8.9283C16.3531 9.50896 16.6902 10.1864 16.9097 10.9606C17.1448 11.7348 17.2624 12.5706 17.2624 13.468C17.2624 14.2423 17.1448 14.9901 16.9097 15.7115C16.6902 16.4153 16.3531 17.04 15.8984 17.5855C15.428 18.1309 14.8479 18.562 14.158 18.8788C13.4682 19.1955 12.6529 19.3538 11.7121 19.3538H6.60865Z" fill="white"/>
<path d="M44.6378 39.4659H51.2699V39.0172C50.9407 38.2958 50.6898 37.4336 50.5173 36.4306C50.3449 35.4277 50.2586 34.1608 50.2586 32.6299V20.3832C50.2586 18.7292 49.9843 17.2775 49.4355 16.0282C48.8867 14.7613 48.1263 13.7144 47.1542 12.8874C46.1821 12.0604 45.0297 11.4357 43.697 11.0134C42.38 10.5911 40.9532 10.38 39.4167 10.38C37.7077 10.38 36.1868 10.6263 34.8541 11.119C33.5371 11.5941 32.4239 12.2451 31.5145 13.0721C30.5895 13.8991 29.8839 14.8581 29.3979 15.949C28.9275 17.04 28.6923 18.1925 28.6923 19.4066H35.2304C35.2304 18.8964 35.2931 18.4301 35.4186 18.0078C35.5597 17.5855 35.7714 17.2247 36.0536 16.9256C36.3671 16.5913 36.7748 16.3362 37.2765 16.1602C37.7782 15.9666 38.374 15.8699 39.0639 15.8699C39.8479 15.8699 40.5299 15.9842 41.11 16.213C41.7058 16.4241 42.1997 16.7321 42.5917 17.1368C42.968 17.5239 43.2502 17.9902 43.4383 18.5356C43.6265 19.0635 43.7205 19.6618 43.7205 20.3304V22.0196H40.0752C38.1937 22.0196 36.5239 22.2132 35.0658 22.6003C33.6233 22.9698 32.4082 23.5153 31.4205 24.2367C30.3229 25.0285 29.4998 26.0403 28.951 27.272C28.4023 28.4861 28.1279 29.885 28.1279 31.4686C28.1279 32.7003 28.3474 33.844 28.7864 34.8998C29.2254 35.9379 29.8369 36.8353 30.6208 37.592C31.4048 38.3486 32.3377 38.938 33.4195 39.3603C34.517 39.7826 35.7165 39.9938 37.0178 39.9938C37.8174 39.9938 38.5622 39.9058 39.2521 39.7299C39.9419 39.5715 40.5769 39.3427 41.157 39.0436C41.7215 38.7621 42.2389 38.4278 42.7093 38.0406C43.1796 37.6535 43.5951 37.24 43.9557 36.8001C44.0341 37.3104 44.1282 37.7943 44.2379 38.2518C44.3477 38.7093 44.481 39.114 44.6378 39.4659ZM38.4054 34.3191C37.7939 34.3191 37.253 34.2399 36.7826 34.0816C36.328 33.9056 35.9438 33.6769 35.6302 33.3953C35.3167 33.0962 35.0736 32.7355 34.9012 32.3132C34.7444 31.8733 34.666 31.3982 34.666 30.8879C34.666 30.2369 34.7757 29.6386 34.9953 29.0932C35.2148 28.5301 35.5518 28.0462 36.0065 27.6415C36.4612 27.2544 37.0492 26.9553 37.7704 26.7441C38.4916 26.5154 39.3618 26.401 40.3809 26.401H43.7205V31.3102C43.5324 31.6797 43.2737 32.0493 42.9444 32.4188C42.6152 32.7707 42.2232 33.0874 41.7685 33.3689C41.3138 33.6505 40.8043 33.8792 40.2398 34.0552C39.6754 34.2311 39.0639 34.3191 38.4054 34.3191Z" fill="white"/>
<path d="M61.6885 51C63.0056 51 64.1423 50.7537 65.0987 50.261C66.0708 49.7683 66.8939 49.1612 67.5681 48.4398C68.2423 47.7184 68.7989 46.9354 69.2379 46.0908C69.6926 45.2462 70.0611 44.4631 70.3433 43.7417L83.2548 10.9078H76.0347L70.2257 27.6943L69.2614 30.5448L68.5559 27.6415L62.7233 10.9078H55.5738L66.3452 38.2518L64.84 41.3927C64.6518 41.7798 64.4872 42.0789 64.3461 42.2901C64.2207 42.5012 64.0168 42.8179 63.7346 43.2402C63.4524 43.6625 63.1075 44.0496 62.6998 44.4016C62.3078 44.7711 61.8532 44.9558 61.3358 44.9558C61.0849 44.9558 60.7478 44.9382 60.3245 44.903C59.9168 44.8854 59.5797 44.8766 59.3132 44.8766L58.5136 50.4721C59.078 50.6481 59.5876 50.7801 60.0423 50.868C60.5126 50.956 61.0614 51 61.6885 51Z" fill="white"/>
<path d="M87.9307 39.4659V0.153565H108.199V3.37841H91.1292V18.1781H106.609V21.403H91.1292V39.4659H87.9307Z" fill="white"/>
<path d="M115.238 39.4659V9.98165H118.197V14.5118H118.419C118.944 13.0273 119.856 11.8308 121.156 10.9222C122.467 10.0008 123.949 9.54016 125.603 9.54016C125.854 9.54016 126.133 9.54655 126.441 9.55935C126.749 9.57215 127.005 9.58495 127.211 9.59774V13.0721C127.074 13.0465 126.834 13.0081 126.492 12.957C126.15 12.9058 125.78 12.8802 125.38 12.8802C124.012 12.8802 122.792 13.2065 121.72 13.8591C120.66 14.499 119.822 15.3884 119.206 16.5273C118.59 17.6662 118.282 18.9651 118.282 20.424V39.4659H115.238Z" fill="white"/>
<path d="M132.44 39.4659V9.98165H135.502V39.4659H132.44ZM133.997 4.91405C133.37 4.91405 132.834 4.6773 132.389 4.20381C131.944 3.71753 131.722 3.13526 131.722 2.45702C131.722 1.77878 131.944 1.20292 132.389 0.729431C132.834 0.243144 133.37 0 133.997 0C134.624 0 135.16 0.243144 135.604 0.729431C136.049 1.20292 136.272 1.77878 136.272 2.45702C136.272 3.13526 136.049 3.71753 135.604 4.20381C135.16 4.6773 134.624 4.91405 133.997 4.91405Z" fill="white"/>
<path d="M154.175 40.0802C151.724 40.0802 149.603 39.4403 147.813 38.1606C146.022 36.8681 144.637 35.0829 143.656 32.8051C142.687 30.5144 142.202 27.8782 142.202 24.8965C142.202 21.9276 142.687 19.2915 143.656 16.988C144.637 14.6717 145.988 12.861 147.71 11.5557C149.443 10.2376 151.444 9.57855 153.714 9.57855C155.139 9.57855 156.513 9.87288 157.836 10.4615C159.158 11.0374 160.344 11.9268 161.393 13.1297C162.454 14.3198 163.292 15.8235 163.908 17.6406C164.523 19.445 164.831 21.5821 164.831 24.0519V25.7411H144.306V22.7275H161.718C161.718 20.8335 161.376 19.1315 160.692 17.6215C160.019 16.0986 159.079 14.8957 157.87 14.0127C156.673 13.1297 155.287 12.6882 153.714 12.6882C152.049 12.6882 150.583 13.1873 149.318 14.1855C148.052 15.1836 147.06 16.5017 146.342 18.1397C145.635 19.7777 145.275 21.5693 145.264 23.5145V25.3188C145.264 27.6607 145.623 29.7082 146.342 31.4614C147.071 33.2018 148.103 34.5519 149.438 35.5116C150.772 36.4714 152.351 36.9513 154.175 36.9513C155.418 36.9513 156.507 36.7338 157.442 36.2987C158.389 35.8636 159.181 35.2813 159.82 34.5519C160.47 33.8096 160.96 32.997 161.291 32.114L164.181 33.1698C163.782 34.4111 163.127 35.5564 162.214 36.6058C161.314 37.6551 160.185 38.4997 158.828 39.1396C157.482 39.7666 155.931 40.0802 154.175 40.0802Z" fill="white"/>
<path d="M174.585 21.0383V39.4659H171.54V9.98165H174.499V14.6078H174.773C175.389 13.0977 176.347 11.8884 177.647 10.9798C178.958 10.0584 180.577 9.59774 182.504 9.59774C184.272 9.59774 185.822 10.0136 187.157 10.8455C188.502 11.6645 189.545 12.8738 190.287 14.4734C191.039 16.073 191.416 18.0374 191.416 20.3664V39.4659H188.371V20.5776C188.371 18.1589 187.767 16.2458 186.558 14.8381C185.361 13.4304 183.753 12.7266 181.735 12.7266C180.355 12.7266 179.129 13.0593 178.057 13.7248C176.985 14.3902 176.136 15.35 175.509 16.6041C174.893 17.8454 174.585 19.3235 174.585 21.0383Z" fill="white"/>
<path d="M208.892 40.0802C206.737 40.0802 204.85 39.4403 203.23 38.1606C201.611 36.8809 200.345 35.0957 199.433 32.8051C198.532 30.5144 198.082 27.8462 198.082 24.8006C198.082 21.7677 198.532 19.1123 199.433 16.8344C200.345 14.5438 201.617 12.765 203.247 11.4981C204.878 10.2184 206.777 9.57855 208.943 9.57855C210.54 9.57855 211.868 9.89847 212.928 10.5383C213.989 11.1654 214.838 11.946 215.477 12.8802C216.115 13.8144 216.612 14.7229 216.965 15.6059H217.239V0.153565H220.3V39.4659H217.324V33.9952H216.965C216.612 34.891 216.11 35.8124 215.46 36.7594C214.81 37.6935 213.949 38.4805 212.877 39.1204C211.817 39.7602 210.488 40.0802 208.892 40.0802ZM209.251 36.9513C210.95 36.9513 212.398 36.433 213.595 35.3965C214.793 34.3471 215.705 32.9075 216.332 31.0775C216.971 29.2347 217.29 27.1232 217.29 24.743C217.29 22.3883 216.976 20.3088 216.349 18.5044C215.722 16.6873 214.81 15.2668 213.613 14.243C212.415 13.2065 210.961 12.6882 209.251 12.6882C207.495 12.6882 206.013 13.2257 204.804 14.3006C203.607 15.3628 202.694 16.8024 202.067 18.6196C201.451 20.4368 201.144 22.4779 201.144 24.743C201.144 27.0336 201.457 29.1004 202.084 30.9431C202.711 32.7859 203.624 34.2511 204.821 35.3389C206.03 36.4138 207.506 36.9513 209.251 36.9513Z" fill="white"/>
<path d="M246.624 16.4505L243.836 17.3335C243.562 16.4505 243.174 15.6507 242.673 14.9341C242.171 14.2175 241.515 13.648 240.706 13.2257C239.907 12.8034 238.915 12.5922 237.73 12.5922C235.951 12.5922 234.491 13.0657 233.351 14.0127C232.211 14.9597 231.64 16.1818 231.64 17.679C231.64 18.9459 232.028 19.9761 232.804 20.7695C233.59 21.5501 234.799 22.1708 236.43 22.6315L240.398 23.7256C242.599 24.3271 244.246 25.2805 245.341 26.5857C246.447 27.891 247 29.5291 247 31.4998C247 33.1634 246.59 34.6415 245.769 35.9339C244.948 37.2264 243.802 38.2438 242.331 38.986C240.871 39.7155 239.178 40.0802 237.251 40.0802C234.685 40.0802 232.57 39.4339 230.905 38.1414C229.24 36.8361 228.174 34.955 227.706 32.498L230.631 31.6917C231.008 33.4449 231.743 34.7694 232.838 35.6652C233.944 36.561 235.398 37.0089 237.199 37.0089C239.218 37.0089 240.831 36.5034 242.04 35.4925C243.248 34.4687 243.853 33.189 243.853 31.6534C243.853 30.4632 243.499 29.4651 242.792 28.6589C242.085 27.8399 241.014 27.2384 239.577 26.8545L235.284 25.7028C233.003 25.0885 231.315 24.1159 230.221 22.785C229.126 21.4542 228.579 19.8033 228.579 17.8326C228.579 16.2074 228.972 14.7805 229.759 13.552C230.546 12.3107 231.629 11.3381 233.009 10.6343C234.388 9.93047 235.962 9.57855 237.73 9.57855C240.136 9.57855 242.057 10.1928 243.494 11.4213C244.942 12.637 245.985 14.3134 246.624 16.4505Z" fill="white"/>
</svg>
